<?xml version="1.0" ?><svg style="enable-background:new 0 0 512 512;" version="1.1" viewBox="0 0 512 512" xml:space="preserve" xmlns="http://www.w3.org/2000/svg" xmlns:xlink="http://www.w3.org/1999/xlink"><g id="_x34_3_x2C__Medical_x2C__protection_x2C__safety_x2C__shield"><g id="XMLID_16_"><path d="M445.02,220.14l-6.3-107.04c-2.1-35.62-31.69-63.52-67.37-63.52h-233.7    c-35.68,0-65.27,27.9-67.37,63.52l-6.3,107.04c-6.006,66.593,23.276,132.095,78.15,171.89L254.5,473.5l112.38-81.47    C421.43,352.455,451.059,287.102,445.02,220.14z" id="XMLID_3826_" style="fill:#9BC9FF;"/><path d="M458.5,358.5c13.81,0,25,11.19,25,25s-11.19,25-25,25c-13.81,0-25-11.19-25-25    S444.69,358.5,458.5,358.5z" id="XMLID_3825_" style="fill:#9BC9FF;"/><circle cx="88.5" cy="438.5" id="XMLID_3824_" r="35" style="fill:#9BC9FF;"/><path d="M416.09,222.32c5.31,57.02-19.88,112.61-66.24,146.23l-20.62,14.95H179.78    l-20.63-14.95c-46.36-33.62-71.55-89.21-66.24-146.23l6.32-107.51c20.38,0,37.23-15.89,38.43-36.23h233.69    c1.19,20.34,18.04,36.23,38.42,36.23L416.09,222.32z" id="XMLID_7246_" style="fill:#FFFFFF;"/><circle cx="471" cy="311" id="XMLID_3822_" r="7.5" style="fill:#1E81CE;"/><circle cx="446" cy="51" id="XMLID_3821_" r="7.5" style="fill:#1E81CE;"/><circle cx="386" cy="436" id="XMLID_3820_" r="7.5" style="fill:#1E81CE;"/><polygon id="XMLID_3819_" points="329.23,383.5 254.5,437.68 179.78,383.5   " style="fill:#FFFFFF;"/><path d="M326.77,167.7c5.77,5.77,5.77,15.13,0,20.9l-8.68,8.68l-48.79,48.79l-20.89,20.89    l-20.9-20.89l-10.45-10.45c-2.88-2.88-4.33-6.67-4.33-10.45c0-3.78,1.45-7.57,4.33-10.45c5.77-5.77,15.13-5.77,20.9,0l10.45,10.45    l50.61-50.61l6.86-6.86c2.88-2.88,6.66-4.33,10.44-4.33C320.1,163.37,323.88,164.82,326.77,167.7z" id="XMLID_3818_" style="fill:#FFFFFF;"/><path d="M318.09,197.28c5.66,10.44,8.89,22.39,8.89,35.06c0,40.5-33.18,73.68-73.68,73.68    c-40.66,0-73.84-33.18-73.84-73.68c0-40.66,33.18-73.84,73.84-73.84c17.23,0,33.13,6.02,45.72,16.06l-50.61,50.61l-10.45-10.45    c-5.77-5.77-15.13-5.77-20.9,0c-2.88,2.88-4.33,6.67-4.33,10.45c0,3.78,1.45,7.57,4.33,10.45l10.45,10.45l20.9,20.89l20.89-20.89    L318.09,197.28z" id="XMLID_3817_" style="fill:#9BC9FF;"/><circle cx="186" cy="456" id="XMLID_3816_" r="7.5" style="fill:#1E81CE;"/><circle cx="61" cy="41" id="XMLID_3815_" r="7.5" style="fill:#1E81CE;"/><circle cx="51" cy="346" id="XMLID_3814_" r="7.5" style="fill:#1E81CE;"/><circle cx="31" cy="206" id="XMLID_3813_" r="7.5" style="fill:#1E81CE;"/><path d="M254.5,478.5c-1.03,0-2.06-0.317-2.935-0.952l-112.37-81.47    c-27.526-19.963-49.487-46.877-63.509-77.836c-13.942-30.775-19.714-64.823-16.692-98.475l6.295-106.961    c2.255-38.258,34.04-68.226,72.361-68.226h233.7c38.321,0,70.106,29.968,72.361,68.226l6.295,106.962    c3.022,33.651-2.75,67.699-16.693,98.476c-14.027,30.959-35.985,57.874-63.498,77.834l-112.381,81.471    C256.56,478.183,255.53,478.5,254.5,478.5z M137.65,54.58c-33.034,0-60.435,25.834-62.379,58.814l-6.3,107.04    c-0.003,0.052-0.007,0.104-0.011,0.155c-2.882,31.958,2.593,64.299,15.834,93.527c13.307,29.38,34.148,54.922,60.271,73.866    L254.5,467.324l109.445-79.342c26.109-18.942,46.948-44.485,60.26-73.866c13.241-29.228,18.717-61.569,15.835-93.527    c-0.004-0.052-0.008-0.104-0.011-0.155l-6.3-107.04c-1.944-32.979-29.345-58.814-62.379-58.814H137.65z" id="XMLID_7208_" style="fill:#1E81CE;"/><path d="M458.5,413.5c-16.542,0-30-13.458-30-30s13.458-30,30-30    c16.542,0,30,13.458,30,30S475.042,413.5,458.5,413.5z M458.5,363.5c-11.028,0-20,8.972-20,20s8.972,20,20,20s20-8.972,20-20    S469.528,363.5,458.5,363.5z" id="XMLID_7200_" style="fill:#1E81CE;"/><path d="M88.5,478.5c-22.056,0-40-17.944-40-40s17.944-40,40-40c22.056,0,40,17.944,40,40    S110.556,478.5,88.5,478.5z M88.5,408.5c-16.542,0-30,13.458-30,30s13.458,30,30,30s30-13.458,30-30S105.042,408.5,88.5,408.5z" id="XMLID_7192_" style="fill:#1E81CE;"/><path d="M329.23,388.5H179.78c-2.761,0-5-2.238-5-5s2.239-5,5-5h149.45    c2.761,0,5,2.238,5,5S331.991,388.5,329.23,388.5z" id="XMLID_3806_" style="fill:#1E81CE;"/><path d="M254.5,442.68c-1.03,0-2.06-0.317-2.935-0.952l-95.349-69.129    c-23.451-17.007-42.164-39.941-54.116-66.325c-11.943-26.362-16.844-55.52-14.176-84.331l6.315-107.426    c0.155-2.643,2.344-4.707,4.991-4.707c17.707,0,32.396-13.847,33.439-31.524c0.156-2.643,2.344-4.705,4.991-4.705h233.69    c2.648,0,4.837,2.064,4.992,4.708c1.034,17.676,15.717,31.522,33.428,31.522c2.647,0,4.836,2.063,4.991,4.707l6.315,107.426    c2.668,28.811-2.233,57.969-14.176,84.331c-11.953,26.384-30.665,49.318-54.115,66.324l-95.351,69.13    C256.56,442.362,255.53,442.68,254.5,442.68z M103.96,119.554l-6.059,103.059c-0.003,0.057-0.007,0.113-0.013,0.17    c-5.121,54.985,19.478,109.289,64.197,141.719l92.415,67.002l92.415-67.002c44.718-32.43,69.317-86.733,64.196-141.719    c-0.005-0.057-0.01-0.113-0.013-0.17l-6.059-103.059c-19.277-2.097-34.93-16.856-38.15-35.974H142.118    C138.889,102.697,123.233,117.457,103.96,119.554z" id="XMLID_7176_" style="fill:#1E81CE;"/><path d="M253.3,311.02c-43.473,0-78.84-35.296-78.84-78.68    c0-43.473,35.367-78.84,78.84-78.84c17.624,0,34.969,6.091,48.838,17.151c2.159,1.722,2.513,4.868,0.792,7.027    c-1.721,2.159-4.867,2.514-7.027,0.791c-12.28-9.793-27.012-14.969-42.603-14.969c-37.958,0-68.84,30.881-68.84,68.84    c0,37.87,30.881,68.68,68.84,68.68c37.871,0,68.68-30.81,68.68-68.68c0-11.379-2.865-22.679-8.286-32.677    c-1.316-2.427-0.415-5.462,2.013-6.778c2.428-1.316,5.463-0.415,6.778,2.013c6.211,11.457,9.495,24.405,9.495,37.443    C331.98,275.724,296.684,311.02,253.3,311.02z" id="XMLID_3803_" style="fill:#1E81CE;"/><path d="M248.41,271.96c-1.279,0-2.559-0.488-3.535-1.464l-31.351-31.34    c-3.736-3.737-5.794-8.704-5.794-13.986c0-5.282,2.058-10.249,5.794-13.985c3.735-3.735,8.702-5.792,13.986-5.792    c5.283,0,10.25,2.057,13.985,5.792l6.915,6.915l53.934-53.935c3.736-3.736,8.699-5.794,13.975-5.794    c5.27,0,10.234,2.056,13.98,5.789c3.741,3.741,5.798,8.708,5.798,13.992c0,5.283-2.057,10.25-5.792,13.985l-78.36,78.359    C250.969,271.472,249.69,271.96,248.41,271.96z M227.51,215.393c-2.613,0-5.068,1.017-6.915,2.863    c-1.848,1.848-2.866,4.303-2.866,6.914c0,2.611,1.018,5.067,2.866,6.915l27.814,27.805l74.825-74.825    c1.846-1.846,2.863-4.302,2.863-6.914c0-2.613-1.017-5.068-2.863-6.915c-1.852-1.846-4.31-2.866-6.915-2.866    c-2.605,0-5.057,1.018-6.904,2.865l-57.47,57.47c-1.953,1.952-5.118,1.952-7.071,0l-10.45-10.45    C232.578,216.41,230.123,215.393,227.51,215.393z" id="XMLID_18_" style="fill:#1E81CE;"/></g></g><g id="Layer_1"/></svg>